<?xml version="1.0" encoding="UTF-8" standalone="yes"?><svg xmlns="http://www.w3.org/2000/svg" version="1.1" width="328" height="328" viewBox="0 0 328 328" shape-rendering="crispEdges"><path d="M0 0h328v328H0z" fill="#ffffff"/><path fill="#000000" d="M32 32h8v8h-8zM40 32h8v8h-8zM48 32h8v8h-8zM56 32h8v8h-8zM64 32h8v8h-8zM72 32h8v8h-8zM80 32h8v8h-8zM96 32h8v8h-8zM120 32h8v8h-8zM128 32h8v8h-8zM136 32h8v8h-8zM144 32h8v8h-8zM152 32h8v8h-8zM160 32h8v8h-8zM176 32h8v8h-8zM200 32h8v8h-8zM216 32h8v8h-8zM240 32h8v8h-8zM248 32h8v8h-8zM256 32h8v8h-8zM264 32h8v8h-8zM272 32h8v8h-8zM280 32h8v8h-8zM288 32h8v8h-8zM32 40h8v8h-8zM80 40h8v8h-8zM104 40h8v8h-8zM112 40h8v8h-8zM136 40h8v8h-8zM144 40h8v8h-8zM176 40h8v8h-8zM184 40h8v8h-8zM240 40h8v8h-8zM288 40h8v8h-8zM32 48h8v8h-8zM48 48h8v8h-8zM56 48h8v8h-8zM64 48h8v8h-8zM80 48h8v8h-8zM128 48h8v8h-8zM144 48h8v8h-8zM152 48h8v8h-8zM168 48h8v8h-8zM176 48h8v8h-8zM192 48h8v8h-8zM200 48h8v8h-8zM208 48h8v8h-8zM216 48h8v8h-8zM224 48h8v8h-8zM240 48h8v8h-8zM256 48h8v8h-8zM264 48h8v8h-8zM272 48h8v8h-8zM288 48h8v8h-8zM32 56h8v8h-8zM48 56h8v8h-8zM56 56h8v8h-8zM64 56h8v8h-8zM80 56h8v8h-8zM96 56h8v8h-8zM104 56h8v8h-8zM120 56h8v8h-8zM160 56h8v8h-8zM168 56h8v8h-8zM216 56h8v8h-8zM224 56h8v8h-8zM240 56h8v8h-8zM256 56h8v8h-8zM264 56h8v8h-8zM272 56h8v8h-8zM288 56h8v8h-8zM32 64h8v8h-8zM48 64h8v8h-8zM56 64h8v8h-8zM64 64h8v8h-8zM80 64h8v8h-8zM96 64h8v8h-8zM120 64h8v8h-8zM128 64h8v8h-8zM160 64h8v8h-8zM184 64h8v8h-8zM216 64h8v8h-8zM240 64h8v8h-8zM256 64h8v8h-8zM264 64h8v8h-8zM272 64h8v8h-8zM288 64h8v8h-8zM32 72h8v8h-8zM80 72h8v8h-8zM96 72h8v8h-8zM112 72h8v8h-8zM136 72h8v8h-8zM152 72h8v8h-8zM168 72h8v8h-8zM176 72h8v8h-8zM192 72h8v8h-8zM200 72h8v8h-8zM240 72h8v8h-8zM288 72h8v8h-8zM32 80h8v8h-8zM40 80h8v8h-8zM48 80h8v8h-8zM56 80h8v8h-8zM64 80h8v8h-8zM72 80h8v8h-8zM80 80h8v8h-8zM96 80h8v8h-8zM112 80h8v8h-8zM128 80h8v8h-8zM144 80h8v8h-8zM160 80h8v8h-8zM176 80h8v8h-8zM192 80h8v8h-8zM208 80h8v8h-8zM224 80h8v8h-8zM240 80h8v8h-8zM248 80h8v8h-8zM256 80h8v8h-8zM264 80h8v8h-8zM272 80h8v8h-8zM280 80h8v8h-8zM288 80h8v8h-8zM96 88h8v8h-8zM128 88h8v8h-8zM168 88h8v8h-8zM184 88h8v8h-8zM192 88h8v8h-8zM200 88h8v8h-8zM208 88h8v8h-8zM216 88h8v8h-8zM224 88h8v8h-8zM32 96h8v8h-8zM64 96h8v8h-8zM80 96h8v8h-8zM88 96h8v8h-8zM96 96h8v8h-8zM104 96h8v8h-8zM112 96h8v8h-8zM128 96h8v8h-8zM152 96h8v8h-8zM168 96h8v8h-8zM192 96h8v8h-8zM200 96h8v8h-8zM232 96h8v8h-8zM240 96h8v8h-8zM248 96h8v8h-8zM256 96h8v8h-8zM264 96h8v8h-8zM288 96h8v8h-8zM56 104h8v8h-8zM88 104h8v8h-8zM104 104h8v8h-8zM120 104h8v8h-8zM128 104h8v8h-8zM144 104h8v8h-8zM152 104h8v8h-8zM160 104h8v8h-8zM168 104h8v8h-8zM176 104h8v8h-8zM216 104h8v8h-8zM232 104h8v8h-8zM264 104h8v8h-8zM272 104h8v8h-8zM280 104h8v8h-8zM40 112h8v8h-8zM48 112h8v8h-8zM72 112h8v8h-8zM80 112h8v8h-8zM88 112h8v8h-8zM104 112h8v8h-8zM120 112h8v8h-8zM136 112h8v8h-8zM144 112h8v8h-8zM152 112h8v8h-8zM176 112h8v8h-8zM192 112h8v8h-8zM200 112h8v8h-8zM208 112h8v8h-8zM216 112h8v8h-8zM232 112h8v8h-8zM240 112h8v8h-8zM264 112h8v8h-8zM280 112h8v8h-8zM40 120h8v8h-8zM56 120h8v8h-8zM64 120h8v8h-8zM96 120h8v8h-8zM112 120h8v8h-8zM128 120h8v8h-8zM136 120h8v8h-8zM192 120h8v8h-8zM200 120h8v8h-8zM216 120h8v8h-8zM232 120h8v8h-8zM240 120h8v8h-8zM288 120h8v8h-8zM40 128h8v8h-8zM80 128h8v8h-8zM88 128h8v8h-8zM104 128h8v8h-8zM112 128h8v8h-8zM136 128h8v8h-8zM152 128h8v8h-8zM160 128h8v8h-8zM184 128h8v8h-8zM192 128h8v8h-8zM200 128h8v8h-8zM208 128h8v8h-8zM216 128h8v8h-8zM224 128h8v8h-8zM240 128h8v8h-8zM256 128h8v8h-8zM264 128h8v8h-8zM280 128h8v8h-8zM288 128h8v8h-8zM48 136h8v8h-8zM56 136h8v8h-8zM64 136h8v8h-8zM112 136h8v8h-8zM136 136h8v8h-8zM144 136h8v8h-8zM176 136h8v8h-8zM184 136h8v8h-8zM192 136h8v8h-8zM200 136h8v8h-8zM216 136h8v8h-8zM248 136h8v8h-8zM264 136h8v8h-8zM272 136h8v8h-8zM64 144h8v8h-8zM72 144h8v8h-8zM80 144h8v8h-8zM96 144h8v8h-8zM104 144h8v8h-8zM112 144h8v8h-8zM120 144h8v8h-8zM144 144h8v8h-8zM152 144h8v8h-8zM168 144h8v8h-8zM176 144h8v8h-8zM192 144h8v8h-8zM216 144h8v8h-8zM224 144h8v8h-8zM232 144h8v8h-8zM240 144h8v8h-8zM280 144h8v8h-8zM64 152h8v8h-8zM72 152h8v8h-8zM88 152h8v8h-8zM104 152h8v8h-8zM112 152h8v8h-8zM152 152h8v8h-8zM160 152h8v8h-8zM168 152h8v8h-8zM176 152h8v8h-8zM184 152h8v8h-8zM200 152h8v8h-8zM208 152h8v8h-8zM216 152h8v8h-8zM224 152h8v8h-8zM232 152h8v8h-8zM240 152h8v8h-8zM256 152h8v8h-8zM32 160h8v8h-8zM40 160h8v8h-8zM56 160h8v8h-8zM72 160h8v8h-8zM80 160h8v8h-8zM88 160h8v8h-8zM104 160h8v8h-8zM112 160h8v8h-8zM120 160h8v8h-8zM144 160h8v8h-8zM168 160h8v8h-8zM184 160h8v8h-8zM200 160h8v8h-8zM208 160h8v8h-8zM216 160h8v8h-8zM224 160h8v8h-8zM240 160h8v8h-8zM256 160h8v8h-8zM280 160h8v8h-8zM32 168h8v8h-8zM56 168h8v8h-8zM72 168h8v8h-8zM88 168h8v8h-8zM96 168h8v8h-8zM120 168h8v8h-8zM128 168h8v8h-8zM144 168h8v8h-8zM152 168h8v8h-8zM176 168h8v8h-8zM200 168h8v8h-8zM216 168h8v8h-8zM232 168h8v8h-8zM264 168h8v8h-8zM272 168h8v8h-8zM64 176h8v8h-8zM80 176h8v8h-8zM96 176h8v8h-8zM152 176h8v8h-8zM168 176h8v8h-8zM192 176h8v8h-8zM200 176h8v8h-8zM216 176h8v8h-8zM248 176h8v8h-8zM264 176h8v8h-8zM280 176h8v8h-8zM48 184h8v8h-8zM56 184h8v8h-8zM64 184h8v8h-8zM88 184h8v8h-8zM144 184h8v8h-8zM160 184h8v8h-8zM168 184h8v8h-8zM176 184h8v8h-8zM184 184h8v8h-8zM192 184h8v8h-8zM200 184h8v8h-8zM216 184h8v8h-8zM224 184h8v8h-8zM240 184h8v8h-8zM248 184h8v8h-8zM280 184h8v8h-8zM32 192h8v8h-8zM64 192h8v8h-8zM80 192h8v8h-8zM112 192h8v8h-8zM128 192h8v8h-8zM152 192h8v8h-8zM176 192h8v8h-8zM200 192h8v8h-8zM208 192h8v8h-8zM224 192h8v8h-8zM240 192h8v8h-8zM248 192h8v8h-8zM256 192h8v8h-8zM264 192h8v8h-8zM32 200h8v8h-8zM40 200h8v8h-8zM48 200h8v8h-8zM56 200h8v8h-8zM72 200h8v8h-8zM104 200h8v8h-8zM128 200h8v8h-8zM160 200h8v8h-8zM168 200h8v8h-8zM208 200h8v8h-8zM216 200h8v8h-8zM224 200h8v8h-8zM232 200h8v8h-8zM248 200h8v8h-8zM272 200h8v8h-8zM280 200h8v8h-8zM48 208h8v8h-8zM80 208h8v8h-8zM128 208h8v8h-8zM160 208h8v8h-8zM168 208h8v8h-8zM176 208h8v8h-8zM192 208h8v8h-8zM208 208h8v8h-8zM216 208h8v8h-8zM232 208h8v8h-8zM256 208h8v8h-8zM280 208h8v8h-8zM48 216h8v8h-8zM64 216h8v8h-8zM88 216h8v8h-8zM104 216h8v8h-8zM112 216h8v8h-8zM136 216h8v8h-8zM168 216h8v8h-8zM192 216h8v8h-8zM200 216h8v8h-8zM216 216h8v8h-8zM224 216h8v8h-8zM232 216h8v8h-8zM240 216h8v8h-8zM280 216h8v8h-8zM288 216h8v8h-8zM32 224h8v8h-8zM40 224h8v8h-8zM48 224h8v8h-8zM56 224h8v8h-8zM64 224h8v8h-8zM72 224h8v8h-8zM80 224h8v8h-8zM88 224h8v8h-8zM112 224h8v8h-8zM128 224h8v8h-8zM136 224h8v8h-8zM144 224h8v8h-8zM152 224h8v8h-8zM168 224h8v8h-8zM184 224h8v8h-8zM192 224h8v8h-8zM200 224h8v8h-8zM208 224h8v8h-8zM224 224h8v8h-8zM232 224h8v8h-8zM240 224h8v8h-8zM248 224h8v8h-8zM256 224h8v8h-8zM280 224h8v8h-8zM288 224h8v8h-8zM96 232h8v8h-8zM128 232h8v8h-8zM136 232h8v8h-8zM144 232h8v8h-8zM152 232h8v8h-8zM160 232h8v8h-8zM168 232h8v8h-8zM176 232h8v8h-8zM192 232h8v8h-8zM216 232h8v8h-8zM224 232h8v8h-8zM256 232h8v8h-8zM272 232h8v8h-8zM280 232h8v8h-8zM32 240h8v8h-8zM40 240h8v8h-8zM48 240h8v8h-8zM56 240h8v8h-8zM64 240h8v8h-8zM72 240h8v8h-8zM80 240h8v8h-8zM96 240h8v8h-8zM120 240h8v8h-8zM128 240h8v8h-8zM136 240h8v8h-8zM144 240h8v8h-8zM152 240h8v8h-8zM176 240h8v8h-8zM192 240h8v8h-8zM200 240h8v8h-8zM208 240h8v8h-8zM224 240h8v8h-8zM240 240h8v8h-8zM256 240h8v8h-8zM264 240h8v8h-8zM32 248h8v8h-8zM80 248h8v8h-8zM104 248h8v8h-8zM112 248h8v8h-8zM136 248h8v8h-8zM144 248h8v8h-8zM160 248h8v8h-8zM192 248h8v8h-8zM200 248h8v8h-8zM208 248h8v8h-8zM224 248h8v8h-8zM256 248h8v8h-8zM280 248h8v8h-8zM32 256h8v8h-8zM48 256h8v8h-8zM56 256h8v8h-8zM64 256h8v8h-8zM80 256h8v8h-8zM96 256h8v8h-8zM112 256h8v8h-8zM136 256h8v8h-8zM144 256h8v8h-8zM160 256h8v8h-8zM192 256h8v8h-8zM200 256h8v8h-8zM208 256h8v8h-8zM224 256h8v8h-8zM232 256h8v8h-8zM240 256h8v8h-8zM248 256h8v8h-8zM256 256h8v8h-8zM264 256h8v8h-8zM32 264h8v8h-8zM48 264h8v8h-8zM56 264h8v8h-8zM64 264h8v8h-8zM80 264h8v8h-8zM120 264h8v8h-8zM128 264h8v8h-8zM136 264h8v8h-8zM176 264h8v8h-8zM200 264h8v8h-8zM216 264h8v8h-8zM224 264h8v8h-8zM240 264h8v8h-8zM248 264h8v8h-8zM256 264h8v8h-8zM264 264h8v8h-8zM32 272h8v8h-8zM48 272h8v8h-8zM56 272h8v8h-8zM64 272h8v8h-8zM80 272h8v8h-8zM104 272h8v8h-8zM112 272h8v8h-8zM120 272h8v8h-8zM136 272h8v8h-8zM152 272h8v8h-8zM168 272h8v8h-8zM216 272h8v8h-8zM224 272h8v8h-8zM240 272h8v8h-8zM248 272h8v8h-8zM256 272h8v8h-8zM264 272h8v8h-8zM32 280h8v8h-8zM80 280h8v8h-8zM104 280h8v8h-8zM112 280h8v8h-8zM120 280h8v8h-8zM136 280h8v8h-8zM144 280h8v8h-8zM152 280h8v8h-8zM160 280h8v8h-8zM168 280h8v8h-8zM176 280h8v8h-8zM192 280h8v8h-8zM200 280h8v8h-8zM216 280h8v8h-8zM224 280h8v8h-8zM232 280h8v8h-8zM240 280h8v8h-8zM264 280h8v8h-8zM32 288h8v8h-8zM40 288h8v8h-8zM48 288h8v8h-8zM56 288h8v8h-8zM64 288h8v8h-8zM72 288h8v8h-8zM80 288h8v8h-8zM96 288h8v8h-8zM104 288h8v8h-8zM112 288h8v8h-8zM120 288h8v8h-8zM136 288h8v8h-8zM144 288h8v8h-8zM168 288h8v8h-8zM192 288h8v8h-8zM200 288h8v8h-8zM208 288h8v8h-8zM216 288h8v8h-8zM224 288h8v8h-8zM232 288h8v8h-8zM240 288h8v8h-8zM288 288h8v8h-8z"/></svg>
